<svg width="62" height="52" viewBox="0 0 62 52" fill="none" xmlns="http://www.w3.org/2000/svg">
<path d="M41.4926 35.2871C29.9343 44.7598 20.5532 39.704 16.8676 35.5658C16.6041 35.2701 16.5497 34.8185 16.4678 34.431C16.198 33.154 14.6517 30.6775 13.4116 28.8819C13.0367 28.3391 13.2608 27.5817 13.877 27.3461L18.3367 25.6412C18.7239 25.4931 18.9796 25.1216 18.9796 24.7071V24.6136C18.9796 24.3405 19.0861 24.0789 19.3004 23.9097C21.6022 22.0913 28.5941 19.3174 32.6436 17.8518C33.1418 17.6715 33.6904 17.9168 33.895 18.4055L34.4424 19.7135C34.6425 20.1915 35.1746 20.4375 35.6684 20.2802L37.6646 19.6443C38.1807 19.4798 38.7339 19.7563 38.9123 20.2678L39.7514 22.6736C39.8147 22.8552 39.986 22.9768 40.1782 22.9768C40.3658 22.9768 40.5346 23.0933 40.599 23.2695C42.3957 28.188 42.1993 32.751 41.8233 34.7438C41.783 34.9572 41.6606 35.1495 41.4926 35.2871Z" fill="#537D24" stroke="#537D24"/>
<circle cx="29.102" cy="28.4973" r="21.0028" stroke="#537D24" stroke-width="5"/>
<path d="M48.0817 9.67431C47.0694 10.158 46.8164 11.4883 44.2858 11.4883L46.8164 14.5115C48.0817 11.4883 48.5035 12.0929 49.347 10.8836C49.9796 10.279 49.347 9.06966 48.0817 9.67431Z" fill="#537D24"/>
<circle cx="53.7755" cy="6.80343" r="5.30343" stroke="#537D24" stroke-width="3"/>
<circle cx="3.71096" cy="44.7442" r="3.71096" fill="#537D24"/>
<circle cx="57.0521" cy="41.1163" r="4.94795" fill="#537D24"/>
<circle cx="10.1224" cy="7.25584" r="2.47397" fill="#537D24"/>
<path d="M13.3417 28.8444C15.049 31.3314 18.0032 35.3027 19.3191 37.5648C19.5062 37.8865 19.8479 38.094 20.2201 38.0892C24.1781 38.0386 25.3667 37.4647 27.2525 35.9117C27.4367 35.76 27.5598 35.5437 27.5948 35.3077C28.3929 29.9169 27.0489 25.6677 25.9953 23.6574C25.78 23.2467 25.2891 23.0914 24.8547 23.2537L13.8143 27.3799C13.2171 27.6031 12.9809 28.3188 13.3417 28.8444Z" fill="#537D24"/>
<path d="M14.0021 29.4017C15.8179 31.6657 19.2714 34.951 20.0794 37.7745C20.2248 38.2826 20.6591 38.6997 21.1874 38.6878C24.7592 38.607 25.7839 38.0217 27.5581 36.5173C27.7382 36.3646 27.8584 36.1501 27.8922 35.9165C28.6715 30.5392 27.367 26.2973 26.338 24.2795C26.1243 23.8604 25.6254 23.7013 25.1859 23.8692L14.4229 27.9839C13.8342 28.209 13.6078 28.9101 14.0021 29.4017Z" fill="#71DF5D"/>
<path d="M17.2901 31.9913C18.062 33.5852 20.2355 35.4295 20.7618 37.7064C20.8861 38.2445 21.3271 38.6988 21.8794 38.6964C24.3443 38.6853 24.7639 38.584 25.7631 37.6544C25.8789 37.5466 25.9684 37.4132 26.0024 37.2587C26.3374 35.7371 25.8406 31.7301 25.4441 29.2467C25.3675 28.7668 24.9425 28.4253 24.4833 28.2663C24.0345 28.111 23.6098 27.8594 23.2774 27.6202C22.957 27.3896 22.5402 27.3057 22.1748 27.4554L18.9679 28.769C18.5923 28.9228 18.3589 29.2959 18.2328 29.6817C18.0706 30.1778 17.7616 30.652 17.4764 31.0063C17.2487 31.2893 17.1318 31.6644 17.2901 31.9913Z" fill="#5DC186"/>
<path d="M19.1719 25.2427C20.8619 28.4274 22.5497 35.2142 23.2473 38.9841C23.3434 39.5036 23.8183 39.8737 24.3393 39.7903C29.1771 39.0162 34.1655 35.6832 36.4324 33.513C36.6041 33.3487 36.7033 33.1247 36.7152 32.8867C37.0351 26.4607 34.6643 20.396 33.1782 18.0135C32.9318 17.6186 32.4289 17.5057 32.0118 17.7062L19.626 23.6595C19.0532 23.9348 18.8724 24.6781 19.1719 25.2427Z" fill="#537D24"/>
<path d="M19.9396 25.8545C21.5229 28.9139 22.8723 35.1186 23.5127 38.7962C23.6034 39.3171 24.079 39.689 24.5988 39.5955C29.3341 38.7437 34.2905 34.7673 36.506 32.5542C36.6723 32.3882 36.7689 32.1653 36.7803 31.93C37.0872 25.6016 35.0557 20.8314 33.6509 18.6748C33.3931 18.2791 32.8808 18.1657 32.4593 18.3722L20.3903 24.2856C19.8261 24.5621 19.6493 25.2933 19.9396 25.8545Z" fill="#71DF5D"/>
<path d="M24.1444 28.4366C24.7825 30.6461 25.3628 35.0865 25.661 37.8463C25.7203 38.3954 26.2111 38.8037 26.7524 38.6965C30.2328 38.0073 33.2715 35.472 34.5735 34.0453C34.6797 33.9289 34.754 33.7899 34.7746 33.6333C35.0075 31.8655 33.954 27.2046 33.2188 24.4078C33.095 23.9371 32.6398 23.6353 32.1635 23.533C31.5574 23.4028 30.9646 23.1152 30.5185 22.8439C30.1796 22.6378 29.756 22.592 29.4065 22.7736L25.7299 24.6846C25.3709 24.8712 25.1747 25.262 25.0993 25.6598C24.9768 26.3064 24.6325 26.9495 24.318 27.4125C24.1148 27.7116 24.0435 28.0873 24.1444 28.4366Z" fill="#5DC186"/>
<ellipse cx="3.61935" cy="3.46187" rx="3.61935" ry="3.46187" transform="matrix(0.996032 -0.0889948 0.0973521 0.99525 26.127 27.6851)" fill="#3994BC"/>
<path d="M29.1434 28.4124L29.3093 28.9651L29.0159 29.0456L28.85 28.4929L29.1434 28.4124ZM30.0264 31.4817L30.1777 31.9857L29.8843 32.0662L29.733 31.5622L30.0264 31.4817ZM30.0487 30.8105C30.0273 30.7393 29.996 30.6823 29.9547 30.6396C29.9146 30.5965 29.8599 30.5635 29.7906 30.5406C29.7225 30.5173 29.6348 30.5008 29.5274 30.4911C29.3456 30.4734 29.1822 30.4465 29.037 30.4106C28.8928 30.3732 28.7704 30.3114 28.6699 30.2254C28.5691 30.1381 28.4943 30.0133 28.4455 29.851C28.399 29.6961 28.3957 29.5517 28.4355 29.4177C28.4754 29.2837 28.5513 29.1683 28.6633 29.0713C28.7762 28.9727 28.9198 28.8996 29.0941 28.8517C29.227 28.8153 29.3534 28.8023 29.4732 28.8127C29.5927 28.8218 29.7027 28.8538 29.8034 28.9087C29.9036 28.9623 29.9907 29.0378 30.0647 29.1351C30.1387 29.2324 30.1968 29.351 30.2388 29.4909L29.699 29.639C29.6765 29.564 29.6484 29.5 29.6149 29.4471C29.5813 29.3941 29.5431 29.3525 29.5001 29.3224C29.4584 29.2919 29.4134 29.2732 29.3651 29.2661C29.3165 29.2578 29.2665 29.2607 29.2151 29.2749C29.1386 29.2958 29.0804 29.328 29.0405 29.3714C29.0006 29.4148 28.977 29.4652 28.9699 29.5226C28.9635 29.5784 28.9701 29.6388 28.9896 29.7037C29.0088 29.7674 29.0367 29.8199 29.0736 29.8612C29.1116 29.9021 29.1655 29.9347 29.2352 29.9588C29.3045 29.9817 29.3955 30 29.5082 30.0137C29.6899 30.0315 29.8531 30.0597 29.9978 30.0984C30.1424 30.1372 30.265 30.1996 30.3654 30.2856C30.4659 30.3716 30.5405 30.4958 30.5893 30.6581C30.6377 30.8193 30.6413 30.967 30.6002 31.1013C30.5587 31.2343 30.4793 31.3494 30.3619 31.4465C30.2441 31.5424 30.0962 31.6147 29.9181 31.6635C29.8028 31.6952 29.6835 31.7117 29.5604 31.713C29.4369 31.713 29.3185 31.6915 29.2051 31.6482C29.0917 31.605 28.9903 31.5341 28.901 31.4355C28.8113 31.3358 28.7414 31.2022 28.6911 31.0348L29.2328 30.8862C29.2602 30.9774 29.2949 31.0503 29.3371 31.105C29.379 31.1584 29.4248 31.1979 29.4745 31.2235C29.5251 31.2474 29.5778 31.26 29.6324 31.2613C29.6871 31.2625 29.7401 31.2561 29.7915 31.242C29.8718 31.22 29.9333 31.1875 29.9761 31.1447C30.0201 31.1015 30.0478 31.0514 30.0591 30.9942C30.0713 30.9354 30.0679 30.8742 30.0487 30.8105Z" fill="white"/>
<path d="M23.3298 25.6975C24.6334 28.89 25.3875 35.1734 25.6728 38.8854C25.7133 39.4118 26.15 39.8235 26.676 39.7788C31.59 39.3611 37.0476 35.8346 39.5283 33.8251C39.7137 33.6749 39.8346 33.4599 39.8701 33.2239C40.8141 26.9366 39.2103 21.9991 37.9936 19.7351C37.7741 19.3267 37.2833 19.1716 36.8489 19.3339L23.9367 24.1596C23.3395 24.3828 23.0888 25.1073 23.3298 25.6975Z" fill="#537D24"/>
<path d="M24.0353 26.374C25.3134 29.5612 26.0525 35.8578 26.332 39.576C26.3716 40.103 26.8087 40.5157 27.3351 40.4689C32.1329 40.0422 37.4552 36.5239 39.8767 34.5175C40.0585 34.3669 40.1764 34.1535 40.2107 33.92C41.1326 27.6463 39.5743 22.716 38.3857 20.444C38.1676 20.0271 37.669 19.8687 37.2296 20.0367L24.6368 24.8509C24.0481 25.076 23.8007 25.789 24.0353 26.374Z" fill="#71DF5D"/>
<path d="M27.9698 29.3187C28.3898 31.5754 28.5351 36.0473 28.5633 38.8214C28.5688 39.3737 29.0176 39.824 29.5668 39.7655C33.0993 39.389 36.3719 37.1349 37.8072 35.8302C37.9243 35.7238 38.0119 35.5919 38.0477 35.4378C38.4517 33.6982 37.8567 28.9642 37.3971 26.1142C37.3197 25.6344 36.8961 25.2934 36.4319 25.1493C35.8409 24.9657 35.2783 24.6263 34.8604 24.3164C34.5433 24.0811 34.1264 23.9979 33.7611 24.1475L29.9137 25.7234C29.5381 25.8773 29.3048 26.2491 29.1908 26.6387C29.0058 27.2713 28.6006 27.8807 28.2425 28.3135C28.011 28.5934 27.9034 28.9616 27.9698 29.3187Z" fill="#5DC186"/>
<ellipse cx="33.6376" cy="32.2064" rx="3.62071" ry="3.46045" fill="#3994BC"/>
<path d="M32.9491 29.739L33.0605 30.3043L32.7607 30.3583L32.6492 29.793L32.9491 29.739ZM33.5296 32.8748L33.6312 33.3902L33.3313 33.4442L33.2297 32.9288L33.5296 32.8748ZM33.6171 32.2082C33.6027 32.1353 33.577 32.0758 33.5401 32.0296C33.5044 31.9831 33.4531 31.9453 33.3864 31.9163C33.3209 31.8871 33.2352 31.8629 33.1292 31.8436C32.95 31.8097 32.7899 31.7685 32.649 31.7198C32.509 31.6696 32.3932 31.5972 32.3016 31.5026C32.2097 31.4067 32.1474 31.2757 32.1146 31.1096C32.0834 30.9512 32.0941 30.8071 32.1468 30.6772C32.1995 30.5473 32.2863 30.4391 32.4072 30.3525C32.5292 30.2644 32.6792 30.2043 32.8573 30.1722C32.9932 30.1477 33.1202 30.146 33.2385 30.167C33.3565 30.1868 33.4629 30.2285 33.5577 30.2921C33.6523 30.3544 33.7317 30.4374 33.7959 30.5409C33.8601 30.6444 33.9063 30.7677 33.9345 30.9108L33.3828 31.0102C33.3677 30.9335 33.3461 30.8673 33.3178 30.8115C33.2896 30.7558 33.2555 30.711 33.2157 30.6772C33.1771 30.6431 33.1341 30.6204 33.0868 30.6091C33.0392 30.5965 32.9891 30.5949 32.9366 30.6044C32.8584 30.6185 32.7974 30.6453 32.7534 30.685C32.7095 30.7247 32.6812 30.7728 32.6684 30.8293C32.6567 30.8843 32.6574 30.945 32.6705 31.0115C32.6834 31.0766 32.7061 31.1314 32.7387 31.1758C32.7727 31.2199 32.8231 31.2572 32.8901 31.2874C32.9569 31.3164 33.0457 31.3427 33.1565 31.3664C33.3357 31.4003 33.4954 31.443 33.6356 31.4944C33.7758 31.5459 33.8917 31.619 33.9833 31.7136C34.075 31.8082 34.1372 31.9385 34.1699 32.1046C34.2024 32.2694 34.1917 32.4169 34.1377 32.547C34.0835 32.6758 33.9932 32.7833 33.8669 32.8696C33.7404 32.9545 33.5861 33.0134 33.4041 33.0462C33.2862 33.0674 33.166 33.0732 33.0433 33.0635C32.9204 33.0526 32.8046 33.0206 32.6959 32.9674C32.5872 32.9142 32.4932 32.8345 32.4139 32.7285C32.3344 32.6211 32.2777 32.4818 32.244 32.3106L32.7975 32.2109C32.8159 32.3042 32.8435 32.3799 32.8802 32.4381C32.9166 32.495 32.9583 32.5385 33.0054 32.5684C33.0534 32.5967 33.1046 32.614 33.1589 32.6201C33.2132 32.6262 33.2666 32.6245 33.3191 32.615C33.4011 32.6003 33.4655 32.5734 33.5123 32.5346C33.5603 32.4955 33.5927 32.448 33.6095 32.3921C33.6274 32.3346 33.6299 32.2733 33.6171 32.2082Z" fill="white"/>
<path d="M27.1144 27.7165C28.2038 30.5132 28.8419 35.7729 29.0935 38.9725C29.1349 39.4988 29.5719 39.9113 30.0973 39.8606C34.336 39.4523 39.0085 36.4428 41.1719 34.6987C41.3577 34.5489 41.4782 34.3345 41.5131 34.0985C42.3112 28.7076 40.9673 24.4585 39.9136 22.4482C39.6984 22.0375 39.2075 21.8821 38.7731 22.0445L27.7326 26.1707C27.1354 26.3939 26.8831 27.1225 27.1144 27.7165Z" fill="#537D24"/>
<path d="M27.7288 28.305C28.7973 31.097 29.4231 36.3697 29.6696 39.5757C29.7101 40.1026 30.1474 40.516 30.6731 40.4631C34.8107 40.0463 39.3657 37.0447 41.4771 35.3037C41.6592 35.1535 41.7767 34.9407 41.8106 34.7071C42.5898 29.3298 41.2853 25.088 40.2564 23.0702C40.0427 22.651 39.5437 22.4919 39.1043 22.6599L28.3412 26.7746C27.7525 26.9996 27.5035 27.7163 27.7288 28.305Z" fill="#71DF5D"/>
<path d="M31.123 30.8065C31.4733 32.7654 31.5993 36.507 31.6266 38.9076C31.6329 39.4599 32.0819 39.9119 32.6302 39.8455C35.6501 39.4797 38.4338 37.569 39.6818 36.4418C39.7993 36.3357 39.8868 36.2039 39.9208 36.0494C40.2557 34.5277 39.7589 30.5207 39.3624 28.0373C39.2858 27.5574 38.8609 27.216 38.4016 27.057C37.9528 26.9016 37.5281 26.6501 37.1958 26.4109C36.8753 26.1802 36.4585 26.0964 36.0932 26.246L32.8863 27.5596C32.5107 27.7135 32.2773 28.0866 32.1511 28.4724C31.989 28.9684 31.6799 29.4426 31.3948 29.797C31.1671 30.08 31.059 30.4489 31.123 30.8065Z" fill="#5DC186"/>
<ellipse cx="36.0612" cy="33.2558" rx="3.16327" ry="3.02326" fill="#3994BC"/>
<path d="M35.6471 31.1567L35.7585 31.722L35.4587 31.776L35.3472 31.2107L35.6471 31.1567ZM36.2276 34.2925L36.3292 34.808L36.0293 34.862L35.9277 34.3465L36.2276 34.2925ZM36.3151 33.6259C36.3007 33.5531 36.275 33.4935 36.2381 33.4473C36.2024 33.4008 36.1511 33.3631 36.0844 33.3341C36.0189 33.3049 35.9332 33.2806 35.8272 33.2613C35.648 33.2275 35.4879 33.1862 35.347 33.1375C35.207 33.0873 35.0912 33.0149 34.9996 32.9203C34.9077 32.8244 34.8454 32.6934 34.8126 32.5273C34.7814 32.3689 34.7921 32.2248 34.8448 32.0949C34.8975 31.965 34.9843 31.8568 35.1052 31.7702C35.2272 31.6821 35.3772 31.622 35.5553 31.5899C35.6912 31.5655 35.8182 31.5637 35.9365 31.5848C36.0545 31.6045 36.1609 31.6462 36.2557 31.7098C36.3503 31.7722 36.4297 31.8551 36.4939 31.9586C36.5581 32.0621 36.6043 32.1855 36.6325 32.3285L36.0808 32.4279C36.0657 32.3512 36.044 32.285 36.0158 32.2293C35.9876 32.1735 35.9535 32.1287 35.9137 32.0949C35.8751 32.0608 35.8321 32.0381 35.7848 32.0268C35.7372 32.0142 35.6871 32.0127 35.6346 32.0221C35.5564 32.0362 35.4954 32.0631 35.4514 32.1027C35.4075 32.1424 35.3792 32.1905 35.3664 32.247C35.3547 32.302 35.3554 32.3628 35.3685 32.4292C35.3814 32.4943 35.4041 32.5491 35.4367 32.5935C35.4707 32.6377 35.5211 32.6749 35.5881 32.7051C35.6549 32.7341 35.7437 32.7605 35.8545 32.7842C36.0337 32.818 36.1934 32.8607 36.3336 32.9122C36.4738 32.9636 36.5897 33.0367 36.6813 33.1313C36.773 33.2259 36.8352 33.3563 36.8679 33.5223C36.9004 33.6871 36.8897 33.8346 36.8357 33.9647C36.7815 34.0935 36.6912 34.201 36.5649 34.2873C36.4384 34.3723 36.2841 34.4311 36.1021 34.4639C35.9842 34.4851 35.864 34.4909 35.7413 34.4813C35.6184 34.4703 35.5026 34.4383 35.3939 34.3851C35.2852 34.3319 35.1912 34.2523 35.1119 34.1462C35.0324 34.0388 34.9757 33.8995 34.942 33.7283L35.4955 33.6286C35.5139 33.7219 35.5415 33.7976 35.5782 33.8558C35.6146 33.9128 35.6563 33.9562 35.7034 33.9861C35.7514 34.0145 35.8026 34.0317 35.8569 34.0378C35.9112 34.0439 35.9646 34.0422 36.0171 34.0327C36.0991 34.018 36.1635 33.9912 36.2103 33.9523C36.2583 33.9132 36.2907 33.8657 36.3075 33.8098C36.3254 33.7523 36.3279 33.691 36.3151 33.6259Z" fill="white"/>
</svg>
